<svg width="531" height="131" viewBox="0 0 531 131" fill="none" xmlns="http://www.w3.org/2000/svg">
<path fill-rule="evenodd" clip-rule="evenodd" d="M426.331 107.242C422.04 108.659 417.454 109.367 412.573 109.367C407.691 109.367 403.105 108.659 398.814 107.242C394.523 105.824 390.626 103.797 387.122 101.159C383.618 98.5219 380.607 95.3922 378.087 91.7705C375.568 88.1487 373.619 84.094 372.241 79.6062C370.864 75.1184 370.175 70.3156 370.175 65.198C370.175 60.0803 370.864 55.2776 372.241 50.7898C373.619 46.302 375.568 42.2275 378.087 38.5664C380.607 34.9053 383.638 31.7363 387.181 29.0594C390.724 26.3824 394.641 24.3354 398.932 22.9182C403.223 21.501 407.809 20.7924 412.691 20.7924C417.572 20.7924 422.158 21.501 426.449 22.9182C430.74 24.3354 434.638 26.3628 438.141 29.0003C441.645 31.6379 444.656 34.7675 447.176 38.3893C449.695 42.011 451.624 46.0658 452.963 50.5536C454.301 55.0414 454.97 59.8441 454.97 64.9618C454.97 70.0794 454.281 74.8822 452.904 79.37C451.526 83.8578 449.577 87.9322 447.058 91.5933C444.538 95.2544 441.527 98.4234 438.023 101.1C434.519 103.777 430.622 105.824 426.331 107.242ZM175.428 94.1325V107.005H125.471V23.1544H139.88V94.1325H175.428ZM237.017 106.828C232.726 108.521 227.903 109.367 222.55 109.367C217.196 109.367 212.393 108.541 208.141 106.887C203.89 105.234 200.248 102.833 197.217 99.6832C194.186 96.5338 191.863 92.7743 190.249 88.4046C188.635 84.0349 187.828 79.1338 187.828 73.7012V23.1544H202.236V73.1107C202.236 77.8347 203.083 81.9091 204.776 85.334C206.468 88.7589 208.85 91.4162 211.921 93.3058C214.991 95.1954 218.613 96.1402 222.786 96.1402C226.959 96.1402 230.58 95.1954 233.651 93.3058C236.722 91.4162 239.103 88.7589 240.796 85.334C242.489 81.9091 243.335 77.8347 243.335 73.1107V23.1544H257.743V73.7012C257.743 79.1338 256.917 84.0349 255.263 88.4046C253.61 92.7743 251.228 96.5142 248.118 99.6241C245.008 102.734 241.308 105.135 237.017 106.828ZM287.623 107.005V49.1364L309.589 89.5266H320.218L342.185 49.1364V107.005H356.475V23.1544H343.13L315.14 74.5279L287.268 23.1544H273.333V107.005H287.623ZM412.573 96.1402C408.557 96.1402 404.876 95.3725 401.53 93.8372C398.184 92.3019 395.291 90.1564 392.85 87.4008C390.409 84.6451 388.5 81.358 387.122 77.5394C385.744 73.7209 385.055 69.5677 385.055 65.0799C385.055 60.5921 385.744 56.4389 387.122 52.6203C388.5 48.8018 390.409 45.5146 392.85 42.759C395.291 40.0033 398.184 37.8578 401.53 36.3225C404.876 34.7872 408.557 34.0196 412.573 34.0196C416.588 34.0196 420.269 34.7872 423.615 36.3225C426.961 37.8578 429.854 40.0033 432.295 42.759C434.736 45.5146 436.645 48.8018 438.023 52.6203C439.401 56.4389 440.09 60.5921 440.09 65.0799C440.09 69.5677 439.401 73.7209 438.023 77.5394C436.645 81.358 434.736 84.6451 432.295 87.4008C429.854 90.1564 426.961 92.3019 423.615 93.8372C420.269 95.3725 416.588 96.1402 412.573 96.1402ZM530.2 94.723V107.005H465.245V96.6126L509.769 35.4368H467.017V23.1544H527.602V33.5472L483.078 94.723H530.2Z" fill="#707070"/>
<path fill-rule="evenodd" clip-rule="evenodd" d="M426.331 107.242C422.04 108.659 417.454 109.367 412.573 109.367C407.691 109.367 403.105 108.659 398.814 107.242C394.523 105.824 390.626 103.797 387.122 101.159C383.618 98.5219 380.607 95.3922 378.087 91.7705C375.568 88.1487 373.619 84.094 372.241 79.6062C370.864 75.1184 370.175 70.3156 370.175 65.198C370.175 60.0803 370.864 55.2776 372.241 50.7898C373.619 46.302 375.568 42.2275 378.087 38.5664C380.607 34.9053 383.638 31.7363 387.181 29.0594C390.724 26.3824 394.641 24.3354 398.932 22.9182C403.223 21.501 407.809 20.7924 412.691 20.7924C417.572 20.7924 422.158 21.501 426.449 22.9182C430.74 24.3354 434.638 26.3628 438.141 29.0003C441.645 31.6379 444.656 34.7675 447.176 38.3893C449.695 42.011 451.624 46.0658 452.963 50.5536C454.301 55.0414 454.97 59.8441 454.97 64.9618C454.97 70.0794 454.281 74.8822 452.904 79.37C451.526 83.8578 449.577 87.9322 447.058 91.5933C444.538 95.2544 441.527 98.4234 438.023 101.1C434.519 103.777 430.622 105.824 426.331 107.242ZM175.428 94.1325V107.005H125.471V23.1544H139.88V94.1325H175.428ZM237.017 106.828C232.726 108.521 227.903 109.367 222.55 109.367C217.196 109.367 212.393 108.541 208.141 106.887C203.89 105.234 200.248 102.833 197.217 99.6832C194.186 96.5338 191.863 92.7743 190.249 88.4046C188.635 84.0349 187.828 79.1338 187.828 73.7012V23.1544H202.236V73.1107C202.236 77.8347 203.083 81.9091 204.776 85.334C206.468 88.7589 208.85 91.4162 211.921 93.3058C214.991 95.1954 218.613 96.1402 222.786 96.1402C226.959 96.1402 230.58 95.1954 233.651 93.3058C236.722 91.4162 239.103 88.7589 240.796 85.334C242.489 81.9091 243.335 77.8347 243.335 73.1107V23.1544H257.743V73.7012C257.743 79.1338 256.917 84.0349 255.263 88.4046C253.61 92.7743 251.228 96.5142 248.118 99.6241C245.008 102.734 241.308 105.135 237.017 106.828ZM287.623 107.005V49.1364L309.589 89.5266H320.218L342.185 49.1364V107.005H356.475V23.1544H343.13L315.14 74.5279L287.268 23.1544H273.333V107.005H287.623ZM412.573 96.1402C408.557 96.1402 404.876 95.3725 401.53 93.8372C398.184 92.3019 395.291 90.1564 392.85 87.4008C390.409 84.6451 388.5 81.358 387.122 77.5394C385.744 73.7209 385.055 69.5677 385.055 65.0799C385.055 60.5921 385.744 56.4389 387.122 52.6203C388.5 48.8018 390.409 45.5146 392.85 42.759C395.291 40.0033 398.184 37.8578 401.53 36.3225C404.876 34.7872 408.557 34.0196 412.573 34.0196C416.588 34.0196 420.269 34.7872 423.615 36.3225C426.961 37.8578 429.854 40.0033 432.295 42.759C434.736 45.5146 436.645 48.8018 438.023 52.6203C439.401 56.4389 440.09 60.5921 440.09 65.0799C440.09 69.5677 439.401 73.7209 438.023 77.5394C436.645 81.358 434.736 84.6451 432.295 87.4008C429.854 90.1564 426.961 92.3019 423.615 93.8372C420.269 95.3725 416.588 96.1402 412.573 96.1402ZM530.2 94.723V107.005H465.245V96.6126L509.769 35.4368H467.017V23.1544H527.602V33.5472L483.078 94.723H530.2Z" fill="white"/>
<path fill-rule="evenodd" clip-rule="evenodd" d="M47.2694 3.00564C47.2694 0.0667511 43.4816 -1.11946 41.8053 1.29445L0.541078 60.7149C-0.840396 62.7043 0.58323 65.4261 3.00519 65.4261H44.2694C45.9263 65.4261 47.2694 64.083 47.2694 62.4261V3.00564ZM47.2694 127.847C47.2694 130.786 51.0572 131.972 52.7335 129.558L93.9978 70.1373C95.3792 68.148 93.9556 65.4261 91.5337 65.4261H50.2694C48.6126 65.4261 47.2694 66.7693 47.2694 68.4261V127.847Z" fill="white"/>
</svg>
